<svg width="23" height="22" viewBox="0 0 23 22" fill="none" xmlns="http://www.w3.org/2000/svg">
<path fill-rule="evenodd" clip-rule="evenodd" d="M0.890625 10.9173C0.890625 6.55627 0.890625 4.37576 1.92982 2.8052C2.39387 2.10387 2.99449 1.50325 3.69583 1.03919C5.26638 0 7.44689 0 11.8079 0C16.1689 0 18.3494 0 19.92 1.03919C20.6213 1.50325 21.222 2.10387 21.686 2.8052C22.7252 4.37576 22.7252 6.55627 22.7252 10.9173C22.7252 15.2783 22.7252 17.4588 21.686 19.0294C21.222 19.7307 20.6213 20.3313 19.92 20.7954C18.3494 21.8346 16.1689 21.8346 11.8079 21.8346C7.44689 21.8346 5.26638 21.8346 3.69583 20.7954C2.99449 20.3313 2.39387 19.7307 1.92982 19.0294C0.890625 17.4588 0.890625 15.2783 0.890625 10.9173ZM17.4604 10.9174C17.4604 14.0389 14.9299 16.5694 11.8084 16.5694C8.68684 16.5694 6.15634 14.0389 6.15634 10.9174C6.15634 7.79586 8.68684 5.26537 11.8084 5.26537C14.9299 5.26537 17.4604 7.79586 17.4604 10.9174ZM11.8084 14.6572C13.8738 14.6572 15.5481 12.9828 15.5481 10.9174C15.5481 8.85195 13.8738 7.1776 11.8084 7.1776C9.74293 7.1776 8.06858 8.85195 8.06858 10.9174C8.06858 12.9828 9.74293 14.6572 11.8084 14.6572ZM17.6837 6.30943C18.4171 6.30943 19.0117 5.71484 19.0117 4.98137C19.0117 4.24791 18.4171 3.65332 17.6837 3.65332C16.9502 3.65332 16.3556 4.24791 16.3556 4.98137C16.3556 5.71484 16.9502 6.30943 17.6837 6.30943Z" fill="#1E1E1E"/>
</svg>
