<svg width="18" height="19" viewBox="0 0 18 19" fill="none" xmlns="http://www.w3.org/2000/svg">
<path fill-rule="evenodd" clip-rule="evenodd" d="M0.00488281 9.48013C0.00488281 5.88596 0.00488281 4.08887 0.861345 2.79448C1.2438 2.21647 1.73881 1.72146 2.31682 1.33901C3.61121 0.482544 5.40829 0.482544 9.00247 0.482544C12.5966 0.482544 14.3937 0.482544 15.6881 1.33901C16.2661 1.72146 16.7611 2.21647 17.1436 2.79448C18.0001 4.08887 18.0001 5.88596 18.0001 9.48013C18.0001 13.0743 18.0001 14.8714 17.1436 16.1658C16.7611 16.7438 16.2661 17.2388 15.6881 17.6213C14.3937 18.4777 12.5966 18.4777 9.00247 18.4777C5.40829 18.4777 3.61121 18.4777 2.31682 17.6213C1.73881 17.2388 1.2438 16.7438 0.861345 16.1658C0.00488281 14.8714 0.00488281 13.0743 0.00488281 9.48013ZM13.661 9.48032C13.661 12.0529 11.5755 14.1385 9.00285 14.1385C6.43022 14.1385 4.34469 12.0529 4.34469 9.48032C4.34469 6.90769 6.43022 4.82216 9.00285 4.82216C11.5755 4.82216 13.661 6.90769 13.661 9.48032ZM9.00285 12.5625C10.7051 12.5625 12.085 11.1826 12.085 9.48032C12.085 7.77808 10.7051 6.39814 9.00285 6.39814C7.30061 6.39814 5.92068 7.77808 5.92068 9.48032C5.92068 11.1826 7.30061 12.5625 9.00285 12.5625ZM13.8453 5.68261C14.4498 5.68261 14.9398 5.19257 14.9398 4.58808C14.9398 3.98358 14.4498 3.49355 13.8453 3.49355C13.2408 3.49355 12.7508 3.98358 12.7508 4.58808C12.7508 5.19257 13.2408 5.68261 13.8453 5.68261Z" fill="white"/>
</svg>
