<svg width="38" height="54" viewBox="0 0 38 54" fill="none" xmlns="http://www.w3.org/2000/svg">
<path d="M19 25.6667C17.2319 25.6667 15.5362 24.9643 14.286 23.7141C13.0358 22.4638 12.3334 20.7682 12.3334 19C12.3334 17.2319 13.0358 15.5362 14.286 14.286C15.5362 13.0358 17.2319 12.3334 19 12.3334C20.7682 12.3334 22.4638 13.0358 23.7141 14.286C24.9643 15.5362 25.6667 17.2319 25.6667 19C25.6667 19.8755 25.4943 20.7424 25.1592 21.5513C24.8242 22.3601 24.3331 23.095 23.7141 23.7141C23.095 24.3331 22.3601 24.8242 21.5513 25.1592C20.7424 25.4943 19.8755 25.6667 19 25.6667ZM19 0.333374C14.0493 0.333374 9.30139 2.30003 5.80071 5.80071C2.30003 9.30139 0.333374 14.0493 0.333374 19C0.333374 33 19 53.6667 19 53.6667C19 53.6667 37.6667 33 37.6667 19C37.6667 14.0493 35.7 9.30139 32.1994 5.80071C28.6987 2.30003 23.9507 0.333374 19 0.333374Z" fill="#91A366"/>
</svg>
