<svg width="23" height="19" viewBox="0 0 23 19" fill="none" xmlns="http://www.w3.org/2000/svg">
<path d="M15.4798 0.637721V0.633789L16.5036 0.633789L16.8777 0.708502C17.1271 0.757007 17.3535 0.820572 17.557 0.899217C17.7604 0.977862 17.9573 1.06962 18.1476 1.17448C18.3379 1.27933 18.5106 1.38617 18.6654 1.49495C18.819 1.60244 18.9568 1.71648 19.0789 1.83706C19.1996 1.95896 19.388 1.99042 19.6439 1.93144C19.8999 1.87245 20.1755 1.79052 20.4709 1.68567C20.7662 1.58082 21.0583 1.46285 21.347 1.33177C21.6358 1.20068 21.8117 1.11746 21.8747 1.08207C21.9364 1.04538 21.9692 1.02572 21.9731 1.02308L21.977 1.01718L21.9967 1.00735L22.0164 0.997523L22.0361 0.987693L22.0558 0.977862L22.0597 0.971964L22.0656 0.968031L22.0716 0.964099L22.0755 0.958201L22.0952 0.952302L22.1149 0.94837L22.1109 0.977862L22.105 1.00735L22.0952 1.03685L22.0853 1.06634L22.0755 1.086L22.0656 1.10566L22.0558 1.13515C22.0492 1.15481 22.0427 1.18102 22.0361 1.2138C22.0296 1.24657 21.9672 1.37764 21.8491 1.60702C21.7309 1.83641 21.5833 2.06907 21.4061 2.305C21.2289 2.54094 21.0701 2.71919 20.9296 2.83979C20.7879 2.96169 20.694 3.04688 20.6481 3.09539C20.6021 3.14519 20.5464 3.19106 20.4807 3.23302L20.3823 3.2979L20.3626 3.30773L20.3429 3.31756L20.339 3.32346L20.333 3.32739L20.3271 3.33132L20.3232 3.33722L20.3035 3.34705L20.2838 3.35688L20.2799 3.36278L20.274 3.36671L20.2681 3.37064L20.2641 3.37654L20.2602 3.38244L20.2543 3.38637L20.2484 3.39031L20.2444 3.3962H20.3429L20.8942 3.27824C21.2617 3.19959 21.6128 3.10457 21.9475 2.99315L22.4791 2.8162L22.5382 2.79653L22.5677 2.7867L22.5874 2.77687L22.6071 2.76704L22.6268 2.75721L22.6465 2.74738L22.6858 2.74148L22.7252 2.73755V2.77687L22.7154 2.78081L22.7055 2.7867L22.7016 2.7926L22.6957 2.79653L22.6898 2.80047L22.6858 2.80637L22.6819 2.81226L22.676 2.8162L22.6701 2.82013L22.6661 2.82603L22.6622 2.83192L22.6563 2.83586L22.6465 2.85552L22.6366 2.87518L22.6307 2.87911C22.6281 2.88304 22.5447 2.99445 22.3807 3.21335C22.2166 3.43356 22.128 3.54496 22.1149 3.5476C22.1017 3.55153 22.0834 3.57119 22.0597 3.60658C22.0374 3.64327 21.8983 3.78943 21.6423 4.04503C21.3864 4.30063 21.1357 4.52803 20.8903 4.72728C20.6435 4.92782 20.5188 5.17424 20.5162 5.46654C20.5122 5.75753 20.4971 6.08654 20.4709 6.45354C20.4446 6.82056 20.3954 7.21705 20.3232 7.64305C20.251 8.06905 20.1395 8.55075 19.9885 9.08816C19.8376 9.62556 19.6538 10.1499 19.4372 10.6611C19.2206 11.1723 18.9942 11.631 18.758 12.0374C18.5217 12.4437 18.3051 12.7878 18.1082 13.0696C17.9114 13.3514 17.7112 13.6168 17.5077 13.8659C17.3043 14.1149 17.0471 14.3954 16.736 14.7074C16.4236 15.018 16.253 15.1884 16.2241 15.2186C16.1939 15.2474 16.0653 15.3549 15.8382 15.541C15.6124 15.7284 15.3696 15.9159 15.1097 16.1033C14.8511 16.2894 14.6135 16.4448 14.397 16.5693C14.1804 16.6938 13.9192 16.836 13.6134 16.9959C13.3089 17.1572 12.9794 17.3066 12.625 17.4442C12.2706 17.5818 11.8965 17.7096 11.5027 17.8276C11.109 17.9456 10.7283 18.0373 10.3608 18.1029C9.9933 18.1684 9.57655 18.2241 9.11059 18.27L8.41164 18.3388V18.3486H7.13189V18.3388L6.96454 18.329C6.85298 18.3224 6.7611 18.3159 6.6889 18.3093C6.61672 18.3028 6.34435 18.2667 5.87182 18.2012C5.3993 18.1356 5.0285 18.0701 4.75942 18.0046C4.49036 17.939 4.09001 17.8145 3.55842 17.631C3.02683 17.4475 2.57203 17.262 2.19401 17.0746C1.8173 16.8885 1.58104 16.7705 1.48522 16.7207C1.39071 16.6722 1.2844 16.6119 1.16626 16.5398L0.989068 16.4317L0.98515 16.4258L0.979223 16.4218L0.973317 16.4179L0.969379 16.412L0.949691 16.4022L0.930002 16.3923L0.926084 16.3864L0.920158 16.3825L0.914251 16.3786L0.910314 16.3727L0.906396 16.3668L0.900469 16.3628H0.890625V16.3235L0.910314 16.3275L0.930002 16.3334L1.0186 16.3432C1.07767 16.3497 1.23846 16.3596 1.50097 16.3727C1.7635 16.3858 2.0424 16.3858 2.33773 16.3727C2.63306 16.3596 2.93496 16.3301 3.2434 16.2842C3.55186 16.2383 3.9161 16.1597 4.33612 16.0483C4.75615 15.9368 5.14205 15.8045 5.49382 15.6511C5.84428 15.4964 6.09365 15.3811 6.24199 15.3051C6.38898 15.2304 6.61343 15.0914 6.91532 14.8882L7.36815 14.5835L7.37209 14.5776L7.378 14.5737L7.38392 14.5697L7.38784 14.5638L7.39178 14.5579L7.39768 14.554L7.40361 14.5501L7.40753 14.5442L7.42722 14.5383L7.44691 14.5343L7.45084 14.5147L7.45675 14.495L7.46268 14.4911L7.46659 14.4852L7.30909 14.4754C7.20409 14.4688 7.10236 14.4622 7.00391 14.4557C6.90547 14.4492 6.75125 14.4197 6.54123 14.3672C6.33124 14.3148 6.10482 14.2361 5.86198 14.1313C5.61916 14.0264 5.3829 13.9019 5.15319 13.7577C4.92351 13.6135 4.75745 13.4936 4.65507 13.3979C4.55401 13.3035 4.42275 13.1698 4.2613 12.9968C4.10117 12.8225 3.96204 12.6436 3.8439 12.4601C3.72577 12.2766 3.6129 12.0649 3.50528 11.825L3.34185 11.4672L3.332 11.4377L3.32216 11.4082L3.31625 11.3885L3.31231 11.3689L3.34185 11.3728L3.37138 11.3787L3.58795 11.4082C3.73235 11.4279 3.95877 11.4344 4.26721 11.4279C4.57567 11.4213 4.78895 11.4082 4.90708 11.3885C5.02522 11.3689 5.09741 11.3558 5.12366 11.3492L5.16304 11.3394L5.21226 11.3295L5.26148 11.3197L5.26542 11.3138L5.27132 11.3099L5.27725 11.306L5.28117 11.3001L5.24179 11.2902L5.20241 11.2804L5.16304 11.2706L5.12366 11.2607L5.08428 11.2509C5.05804 11.2444 5.0121 11.2312 4.94646 11.2116C4.88084 11.1919 4.70364 11.1198 4.41487 10.9953C4.12612 10.8708 3.89641 10.7495 3.72577 10.6316C3.55471 10.5133 3.3916 10.3839 3.2375 10.2442C3.08393 10.1027 2.91528 9.92048 2.7315 9.69766C2.54775 9.47484 2.38368 9.21596 2.23929 8.92104C2.09491 8.62612 1.98663 8.34431 1.91443 8.0756C1.84252 7.80847 1.79508 7.53536 1.77269 7.25965L1.73723 6.84677L1.75692 6.8507L1.77661 6.8566L1.7963 6.86643L1.81599 6.87626L1.83567 6.88609L1.85536 6.89592L2.16054 7.03355C2.364 7.12531 2.61666 7.20395 2.91854 7.26948C3.22045 7.33502 3.40091 7.37107 3.45998 7.37762L3.54858 7.38745H3.72577L3.72186 7.38155L3.71593 7.37762L3.71002 7.37369L3.70608 7.36779L3.70217 7.36189L3.69624 7.35796L3.69033 7.35403L3.6864 7.34813L3.66671 7.3383L3.64702 7.32847L3.6431 7.32257L3.63717 7.31864L3.63127 7.31471L3.62733 7.30881L3.60764 7.29898L3.58795 7.28915L3.58404 7.28325C3.5801 7.28061 3.52365 7.23868 3.41469 7.15741C3.30706 7.07484 3.19418 6.96802 3.07605 6.83694C2.95792 6.70585 2.83979 6.56822 2.72166 6.42405C2.60331 6.27954 2.4979 6.12493 2.40664 5.96201C2.31478 5.79817 2.21763 5.58974 2.11525 5.33678C2.01419 5.08511 1.93741 4.83148 1.8849 4.57588C1.83241 4.32029 1.80287 4.06797 1.7963 3.81892C1.78974 3.56987 1.7963 3.35688 1.81599 3.17993C1.83567 3.00298 1.87505 2.80308 1.93412 2.58026C1.99318 2.35744 2.07851 2.1215 2.19007 1.87245L2.35742 1.49889L2.36726 1.4694L2.37711 1.4399L2.38304 1.43597L2.38695 1.43007L2.39089 1.42417L2.3968 1.42024L2.40272 1.42417L2.40664 1.43007L2.41058 1.43597L2.41649 1.4399L2.42241 1.44384L2.42633 1.44973L2.43027 1.45563L2.43617 1.45956L2.44602 1.47923L2.45586 1.49889L2.46179 1.50282L2.46571 1.50872L2.7315 1.80364C2.9087 2.00025 3.11872 2.21981 3.36154 2.46229C3.60437 2.70477 3.73891 2.83061 3.76515 2.83979C3.79141 2.85027 3.82422 2.88041 3.86359 2.93023C3.90297 2.97874 4.03423 3.09474 4.25736 3.27824C4.48051 3.46174 4.77255 3.67475 5.1335 3.91723C5.49447 4.15971 5.8948 4.39893 6.3345 4.63487C6.77423 4.8708 7.24675 5.08379 7.75208 5.27386C8.25742 5.46393 8.61182 5.58844 8.81526 5.64743C9.01872 5.70641 9.36654 5.78177 9.85875 5.87353C10.351 5.96529 10.7218 6.02427 10.9712 6.05048C11.2205 6.07669 11.3912 6.09177 11.4831 6.0957L11.6209 6.09964L11.617 6.07014L11.611 6.04065L11.5717 5.79489C11.5454 5.63105 11.5323 5.40166 11.5323 5.10674C11.5323 4.81182 11.5553 4.53984 11.6012 4.29079C11.6471 4.04174 11.716 3.78943 11.8079 3.53383C11.8998 3.27824 11.9897 3.07309 12.0776 2.91843C12.1669 2.76508 12.2837 2.59009 12.4281 2.39348C12.5725 2.19686 12.7595 1.9937 12.9892 1.78398C13.2189 1.57425 13.4814 1.38747 13.7768 1.22363C14.0721 1.05979 14.3445 0.935256 14.5938 0.850064C14.8432 0.764871 15.0533 0.709151 15.2239 0.682942C15.3945 0.656734 15.4798 0.641654 15.4798 0.637721Z" fill="#1E1E1E"/>
</svg>
