<svg width="19" height="16" viewBox="0 0 19 16" fill="none" xmlns="http://www.w3.org/2000/svg">
<path d="M12.8607 0.783514V0.780273L13.7045 0.780273L14.0128 0.841849C14.2184 0.881824 14.405 0.934212 14.5726 0.999028C14.7403 1.06384 14.9026 1.13947 15.0594 1.22589C15.2163 1.3123 15.3586 1.40035 15.4862 1.49001C15.6128 1.5786 15.7264 1.67258 15.827 1.77196C15.9265 1.87243 16.0817 1.89835 16.2926 1.84974C16.5036 1.80113 16.7308 1.73361 16.9742 1.64719C17.2176 1.56077 17.4583 1.46355 17.6962 1.35552C17.9342 1.24749 18.0792 1.17889 18.1311 1.14973C18.182 1.11949 18.209 1.10329 18.2123 1.10111L18.2155 1.09625L18.2317 1.08815L18.2479 1.08005L18.2642 1.07195L18.2804 1.06384L18.2836 1.05898L18.2885 1.05574L18.2934 1.0525L18.2966 1.04764L18.3128 1.04278L18.3291 1.03954L18.3258 1.06384L18.321 1.08815L18.3128 1.11246L18.3047 1.13676L18.2966 1.15297L18.2885 1.16917L18.2804 1.19348C18.275 1.20968 18.2696 1.23128 18.2642 1.25829C18.2588 1.28531 18.2074 1.39332 18.11 1.58237C18.0127 1.77143 17.891 1.96317 17.7449 2.15762C17.5989 2.35207 17.468 2.49897 17.3522 2.59837C17.2354 2.69883 17.1581 2.76905 17.1202 2.80902C17.0823 2.85007 17.0364 2.88787 16.9823 2.92245L16.9011 2.97592L16.8849 2.98403L16.8687 2.99213L16.8655 2.99699L16.8606 3.00023L16.8557 3.00347L16.8525 3.00833L16.8362 3.01643L16.82 3.02454L16.8168 3.0294L16.8119 3.03264L16.807 3.03588L16.8038 3.04074L16.8005 3.0456L16.7957 3.04884L16.7908 3.05208L16.7876 3.05694H16.8687L17.323 2.95972C17.6259 2.8949 17.9153 2.81659 18.1911 2.72476L18.6293 2.57892L18.6779 2.56272L18.7023 2.55462L18.7185 2.54652L18.7347 2.53841L18.751 2.53031L18.7672 2.52221L18.7996 2.51735L18.8321 2.51411V2.54652L18.824 2.54976L18.8159 2.55462L18.8126 2.55948L18.8077 2.56272L18.8029 2.56596L18.7996 2.57082L18.7964 2.57568L18.7915 2.57892L18.7867 2.58217L18.7834 2.58703L18.7802 2.59189L18.7753 2.59513L18.7672 2.61133L18.7591 2.62754L18.7542 2.63078C18.752 2.63402 18.6834 2.72583 18.5481 2.90625C18.4129 3.08773 18.3399 3.17954 18.3291 3.18172C18.3183 3.18496 18.3031 3.20116 18.2836 3.23033C18.2652 3.26056 18.1506 3.38103 17.9396 3.59168C17.7287 3.80233 17.5221 3.98975 17.3198 4.15396C17.1164 4.31924 17.0137 4.52233 17.0115 4.76323C17.0082 5.00305 16.9958 5.27421 16.9742 5.57668C16.9525 5.87916 16.912 6.20593 16.8525 6.55702C16.793 6.90812 16.701 7.30511 16.5766 7.74802C16.4522 8.19093 16.3008 8.62304 16.1223 9.04435C15.9438 9.46565 15.7572 9.84374 15.5625 10.1786C15.3677 10.5135 15.1892 10.7971 15.027 11.0293C14.8647 11.2616 14.6998 11.4804 14.5321 11.6856C14.3644 11.8909 14.1524 12.122 13.896 12.3791C13.6385 12.6352 13.4979 12.7756 13.4741 12.8004C13.4492 12.8242 13.3432 12.9128 13.1561 13.0662C12.97 13.2207 12.7699 13.3751 12.5557 13.5296C12.3426 13.683 12.1468 13.811 11.9683 13.9137C11.7898 14.0163 11.5745 14.1335 11.3225 14.2653C11.0715 14.3982 10.8 14.5213 10.5079 14.6347C10.2158 14.7482 9.90752 14.8535 9.58299 14.9507C9.25846 15.048 8.94475 15.1236 8.64185 15.1776C8.33897 15.2316 7.9955 15.2775 7.61147 15.3153L7.03543 15.372V15.3801L5.98071 15.3801V15.372L5.84279 15.3639C5.75085 15.3585 5.67512 15.3531 5.61561 15.3477C5.55613 15.3423 5.33165 15.3126 4.94222 15.2586C4.55278 15.2046 4.24719 15.1506 4.02542 15.0966C3.80367 15.0426 3.47372 14.9399 3.0356 14.7887C2.59749 14.6375 2.22266 14.4846 1.91111 14.3301C1.60065 14.1767 1.40593 14.0795 1.32695 14.0384C1.24907 13.9985 1.16144 13.9488 1.06408 13.8894L0.918046 13.8002L0.914817 13.7954L0.909933 13.7921L0.905065 13.7889L0.90182 13.784L0.885594 13.7759L0.869367 13.7678L0.866138 13.763L0.861254 13.7597L0.856386 13.7565L0.853141 13.7516L0.849911 13.7468L0.845027 13.7435H0.836914V13.7111L0.853141 13.7144L0.869367 13.7192L0.942386 13.7273C0.991066 13.7327 1.12359 13.7408 1.33994 13.7516C1.5563 13.7624 1.78616 13.7624 2.02956 13.7516C2.27296 13.7408 2.52178 13.7165 2.77598 13.6787C3.0302 13.6409 3.33039 13.5761 3.67655 13.4843C4.02273 13.3924 4.34076 13.2833 4.63068 13.1569C4.91951 13.0295 5.12504 12.9344 5.24729 12.8717C5.36844 12.8102 5.55342 12.6957 5.80222 12.5282L6.17543 12.2771L6.17867 12.2722L6.18354 12.269L6.18843 12.2657L6.19165 12.2609L6.1949 12.256L6.19977 12.2528L6.20465 12.2495L6.20788 12.2446L6.22411 12.2398L6.24033 12.2365L6.24358 12.2203L6.24845 12.2041L6.25333 12.2009L6.25656 12.196L6.12675 12.1879C6.04021 12.1825 5.95637 12.1771 5.87524 12.1717C5.79411 12.1663 5.667 12.142 5.49392 12.0988C5.32084 12.0556 5.13424 11.9908 4.9341 11.9044C4.73398 11.8179 4.53926 11.7153 4.34995 11.5965C4.16065 11.4777 4.0238 11.3788 3.93942 11.3C3.85613 11.2222 3.74795 11.112 3.61489 10.9694C3.48292 10.8257 3.36825 10.6782 3.27089 10.527C3.17353 10.3758 3.0805 10.2013 2.99181 10.0036L2.85711 9.70871L2.849 9.68441L2.84089 9.6601L2.83602 9.6439L2.83277 9.62769L2.85711 9.63093L2.88145 9.63579L3.05994 9.6601C3.17895 9.6763 3.36555 9.6817 3.61976 9.6763C3.87398 9.67091 4.04976 9.6601 4.14712 9.6439C4.24448 9.62769 4.30398 9.61688 4.32561 9.61149L4.35806 9.60339L4.39863 9.59528L4.43919 9.58718L4.44244 9.58232L4.44731 9.57908L4.45219 9.57584L4.45542 9.57098L4.42297 9.56288L4.39051 9.55477L4.35806 9.54667L4.32561 9.53857L4.29316 9.53047C4.27153 9.52507 4.23367 9.51426 4.17957 9.49806C4.12549 9.48186 3.97945 9.42243 3.74146 9.31981C3.50348 9.21719 3.31416 9.11726 3.17353 9.02004C3.03254 8.92253 2.89812 8.8159 2.77111 8.70082C2.64454 8.58415 2.50555 8.43399 2.35409 8.25035C2.20265 8.06671 2.06743 7.85335 1.94843 7.61029C1.82944 7.36723 1.74019 7.13497 1.68069 6.91351C1.62143 6.69335 1.58233 6.46827 1.56388 6.24104L1.53465 5.90076L1.55088 5.904L1.56711 5.90886L1.58333 5.91696L1.59956 5.92506L1.61579 5.93317L1.63201 5.94127L1.88352 6.0547C2.05121 6.13032 2.25944 6.19514 2.50824 6.24914C2.75706 6.30315 2.90579 6.33287 2.95447 6.33827L3.02749 6.34637H3.17353L3.1703 6.34151L3.16542 6.33827L3.16055 6.33503L3.1573 6.33016L3.15407 6.3253L3.14919 6.32206L3.14432 6.31882L3.14108 6.31396L3.12485 6.30586L3.10862 6.29776L3.10539 6.2929L3.10051 6.28965L3.09564 6.28641L3.0924 6.28155L3.07617 6.27345L3.05994 6.26535L3.05671 6.26049C3.05347 6.25832 3.00695 6.22375 2.91715 6.15678C2.82844 6.08872 2.73541 6.00069 2.63805 5.89266C2.5407 5.78462 2.44334 5.67119 2.34598 5.55237C2.24844 5.43327 2.16156 5.30585 2.08635 5.17157C2.01064 5.03655 1.93058 4.86477 1.8462 4.65629C1.76291 4.44887 1.69963 4.23984 1.65635 4.02919C1.61309 3.81854 1.58875 3.61059 1.58333 3.40533C1.57793 3.20007 1.58333 3.02454 1.59956 2.8787C1.61579 2.73286 1.64824 2.56812 1.69692 2.38448C1.7456 2.20083 1.81592 2.00639 1.90786 1.80113L2.04579 1.49325L2.0539 1.46895L2.06201 1.44464L2.0669 1.4414L2.07013 1.43654L2.07337 1.43168L2.07824 1.42844L2.08312 1.43168L2.08635 1.43654L2.0896 1.4414L2.09447 1.44464L2.09935 1.44788L2.10258 1.45274L2.10583 1.4576L2.11069 1.46084L2.11881 1.47705L2.12692 1.49325L2.1318 1.49649L2.13503 1.50135L2.35409 1.74442C2.50013 1.90646 2.67322 2.08741 2.87334 2.28725C3.07348 2.4871 3.18435 2.5908 3.20598 2.59837C3.22763 2.60701 3.25466 2.63185 3.28711 2.67291C3.31957 2.71288 3.42775 2.80849 3.61164 2.95972C3.79555 3.11095 4.03624 3.28651 4.33372 3.48635C4.63122 3.6862 4.96115 3.88335 5.32354 4.0778C5.68594 4.27225 6.07538 4.44779 6.49184 4.60443C6.90833 4.76108 7.20041 4.8637 7.36808 4.91231C7.53576 4.96092 7.82242 5.02303 8.22808 5.09866C8.63374 5.17428 8.93935 5.22289 9.14488 5.24449C9.35042 5.26609 9.49105 5.27852 9.56676 5.28176L9.68035 5.285L9.67712 5.2607L9.67224 5.23639L9.63978 5.03384C9.61815 4.89881 9.60733 4.70976 9.60733 4.4667C9.60733 4.22364 9.62627 3.99949 9.66412 3.79423C9.702 3.58897 9.75879 3.38103 9.8345 3.17037C9.91023 2.95972 9.98434 2.79065 10.0568 2.66319C10.1304 2.53679 10.2266 2.39258 10.3456 2.23054C10.4646 2.0685 10.6188 1.90106 10.8081 1.72821C10.9974 1.55536 11.2138 1.40142 11.4571 1.2664C11.7005 1.13137 11.925 1.02873 12.1305 0.958518C12.3361 0.888306 12.5092 0.842384 12.6498 0.820784C12.7904 0.799184 12.8607 0.786755 12.8607 0.783514Z" fill="white"/>
</svg>
